<svg width="36" height="33" viewBox="0 0 36 33" fill="none" xmlns="http://www.w3.org/2000/svg">
<path d="M18 32C27.3888 32 35 25.0603 35 16.5C35 7.93958 27.3888 1 18 1C8.61116 1 1 7.93958 1 16.5C1 25.0603 8.61116 32 18 32Z" stroke="#576EFF" stroke-width="1.62" stroke-linecap="round" stroke-linejoin="round"/>
<path d="M21.9666 27.35V24.4623C22.0091 23.9826 21.9362 23.5002 21.7524 23.0475C21.5688 22.5947 21.2787 22.1818 20.9014 21.8363C24.46 21.4841 28.2 20.2868 28.2 14.7932C28.1997 13.3884 27.5911 12.0375 26.5 11.0201C27.0167 9.7911 26.9801 8.43264 26.398 7.22691C26.398 7.22691 25.0606 6.87476 21.9666 8.71602C19.369 8.09102 16.631 8.09102 14.0334 8.71602C10.9394 6.87476 9.60201 7.22691 9.60201 7.22691C9.0199 8.43264 8.98338 9.7911 9.50001 11.0201C8.40083 12.0451 7.79155 13.4082 7.80001 14.8233C7.80001 20.2767 11.54 21.4741 15.0986 21.8664C14.7258 22.2084 14.4382 22.6164 14.2547 23.0637C14.0711 23.5109 13.9957 23.9874 14.0334 24.4623V27.35" stroke="#576EFF" stroke-width="1.62" stroke-linecap="round" stroke-linejoin="round"/>
<path d="M14.0333 25.3378C10.6333 26.3169 7.79998 25.3378 6.09998 22.3193" stroke="#576EFF" stroke-width="1.62" stroke-linecap="round" stroke-linejoin="round"/>
</svg>
